<svg xmlns="http://www.w3.org/2000/svg" viewBox="0 0 267.27 254.01"><defs><style>.cls-1{fill:#f1931d}.cls-2{fill:#49a033}</style></defs><path d="M51.67 231.84c-83.22 51.94-42.12-106.41-36-130l162 22c-1.44 7.78-71.43 160.55-145 124Z" class="cls-1"/><path d="M.07 198.84c-2.81 66.44 76.41 75.41 125 13Z" class="cls-1"/><path d="M112.56 6.84c-4-2.37-8.07-5.94-12.51-6.85-14.9 22.47-27.93 47.56-30.93 74.58 5 1.66 10.94 4.39 15.79.76 1.67-12.79 5.13-25.68 11-37.19 5.49-10.3 14.02-19.81 16.65-31.3Zm16.11 14.72c-3-3-9.79-7.16-13.62-4.33-9 19.14-18.49 38.54-25.73 58.31 3.26 2.71 10.72 8 14.07 3.83 8.24-17.12 17.58-33.79 24.49-51.5.79-2.03 2.31-4.72.79-6.31Zm34.16-5.44c-4.17-1.45-8.92-4.6-13.38-3.51-8.86 21.37-16.18 43.73-28.65 63.35-1.48 1.47-1 3.32-1.21 5.06 4.18 4.87 12.33 9.11 16.08 1.48 7.57-11.43 12.46-24.39 17.5-37.14 3.04-9.6 10.96-18.96 9.66-29.24Z" class="cls-2"/><path d="M145.14 92.04c-15.9-9.91.71-15.57 6.93-24.59 6.56-7.21 15.26-12.29 21.41-19.87 2.55-3.71 5.92-6.58 9.34-9.45 5.39-4.52 7.86-12.94 14.67-15.54 3.3 3.32 14.58 8 7.45 13.15-10.69 11.31-20.16 22.68-32.28 33.33-5.58 3.88-22.42 25.35-27.52 22.97Zm114.62-70.4c-4.78-3.26-16.58 11.7-22.27 14-25.18 18.22-52.63 33.11-75.94 53.65.13 3.87 5.13 10.62 9 11.23 7.64-3.84 14-10.33 21.09-14.78 21.9-20.05 50.94-32.75 74.36-51.42 4.08-4.59-2.88-9.93-6.24-12.68Z" class="cls-2"/><path d="M73.88 131.04c4 .21 5.76 6.62 3.41 9.55a41.49 41.49 0 0 1-22.72 1.45c-4-2.2-2.75-8.88 1.43-9.87 5.5-1.33 12.24-.96 17.88-1.13Zm19.9 23.98c3.09-1 5.65.54 8.37 1.6 4.54-.73 4.35 4.93 2.64 7.71-1.95 2.87-32.2 5.14-35.61 3.31-15.33-11.07 18.76-10.45 24.6-12.62Zm-23.81 34.23c.13-2.93-.61-7.22-4.39-6.54-5.27.53-9.89-2.53-14.81-3.36-17.8 9.71 10 13.25 18.47 10.82a4.54 4.54 0 0 1 .73-.92Zm-26.89-27.51c3.86.63 5.75-2.67 5.6-6.13-1.06-5.4-8.66-4.13-12.74-5.16-2.61 1.55-3.28 7.4-1.94 10 1.54 2.32 6.67 1.28 9.08 1.29Zm-12.75-24.9c-2.3-6-11.08-6.39-16.92-6.69a4.47 4.47 0 0 1-1.3 1.3c-1.57 4.37.68 7.11 5.26 8.81 5.72 3.01 14.46 7.07 12.96-3.42Zm-9.9 27.69c2.12-3.55 7.41-.55 10.4.54 3.24 1.13 2.77 5.78 2.44 8.53-5.51 2.98-16.34-1.96-12.84-9.07Zm18.33 39.42a4.32 4.32 0 0 1 1.31-.95c.15-6.57-.72-8.44-8.39-8.15-6.61.15-17.94-.46-13.3 9.54 6.37 2.7 13.59-.46 20.38-.44Zm-26.92-15.18c1.76-4.43-4.35-7.21-8-6.89-3.25.68-3.91 5.67-1.51 7.56s7.99 2.28 9.51-.67Zm-1.46 29.29c5.67-.41 4.51 8.31.57 9.81-6.91 1.83-13.54-10.62-.57-9.81Z" style="fill:#d66147"/></svg>