<svg xmlns="http://www.w3.org/2000/svg" viewBox="0 0 1128.2 254.01"><defs><style>.cls-1{fill:#49a033}.cls-2{fill:#f1931d}</style></defs><path d="M0 213.32c3-1 5-2.24 5.86-3.73s1.33-4.15 1.33-8v-56.61q0-6-1.33-8.19T0 133.07v-22h84.5a155.69 155.69 0 0 1 22.25 1.49 58.57 58.57 0 0 1 17.86 5.31 29.91 29.91 0 0 1 11.87 10.33q4.26 6.52 4.26 16.39 0 22.72-26.66 28.67a70 70 0 0 1 11.07 3 23.39 23.39 0 0 1 7.06 4 13.45 13.45 0 0 1 3.87 5.68 23.77 23.77 0 0 1 1.2 8v6.52q0 6.53 1.33 9.12t5.6 3.73v22H84.5a60.7 60.7 0 0 1-2.54-11.08 101.62 101.62 0 0 1-.66-12.39v-11.93a20.31 20.31 0 0 0-1.2-6.89q-1.2-3.35-6.27-5a20.46 20.46 0 0 0-4-.74c-1.43-.12-3.92-.19-7.47-.19v14.53q0 5.78 1.2 7.91t5.73 3.82v22H0Zm62.37-51h6.93q8.27-.18 11.33-3t3.07-9.87q0-7.44-3.6-9.87t-14.8-2.42h-2.93Zm292.54 51a22.72 22.72 0 0 0 3.87-1.86 5.71 5.71 0 0 0 2.13-2.33 11.94 11.94 0 0 0 .93-3.63 50 50 0 0 0 .27-5.77v-52.89a52.45 52.45 0 0 0-.27-5.86 12.12 12.12 0 0 0-.93-3.72 5.65 5.65 0 0 0-2.13-2.33 22.72 22.72 0 0 0-3.87-1.86v-22h82.9q30.39 0 43.58 7.36t13.2 23.74q0 11.73-6.4 18.15t-21.59 10.17q16.53 2.61 23.59 9.5t7.06 20.11q0 11.36-4.66 18.25a31.1 31.1 0 0 1-12.66 10.7 58.42 58.42 0 0 1-18.66 5 200.45 200.45 0 0 1-22.66 1.21h-83.7Zm68-53.81q8.54 0 12.27-2.61t3.73-8.57q0-6.69-4-8.93c-2.67-1.49-6.66-2.24-12-2.24h-6.13v22.35Zm-6.13 50.27h6.13q9.33-.18 13.2-3.26t3.86-10.52q0-7.26-4.13-10.15c-2.76-1.92-7.06-2.88-12.93-2.88h-6.13Zm231.34-52.69h-54.11v-12.67a9.47 9.47 0 0 0-2.13-6.61q-2.13-2.33-7.73-2.32t-7.73 3.16q-2.13 3.16-2.13 9.68v48.42q.25 7.64 2.4 10.89t8 3.26q5.6 0 7.47-2.89t1.86-9.22v-15.45h54.11v41.15a116.88 116.88 0 0 1-29 10 145.54 145.54 0 0 1-16.26 2.33q-8.54.74-18.93.74-20.79 0-33.58-3.16t-19.86-8.47q-7.07-5.31-9.46-12.29a44.13 44.13 0 0 1-2.4-14.43v-50.32a48.91 48.91 0 0 1 2.4-15.45 26.81 26.81 0 0 1 9.46-12.76q7.05-5.49 19.59-8.65t32.73-3.19a180.16 180.16 0 0 1 35.58 3.26 112.23 112.23 0 0 1 29.72 10.33Zm19.46 56.23c3-1 5-2.3 5.86-3.91s1.34-4.22 1.34-7.82v-56.61c0-3.84-.5-6.54-1.47-8.1s-2.89-2.82-5.73-3.81v-22h68v22c-2.31 1-3.82 2-4.53 3.07s-1.07 2.82-1.07 5.3v18.07h21.33v-17.67q0-3.91-1.07-5.59t-4.8-3.16v-22h68v22q-4.28 1.49-5.73 3.91t-1.51 7.84v56.79c0 3.85.44 6.51 1.33 8s2.84 2.74 5.87 3.73v22h-68v-22c2.49-1 4.09-2 4.8-3s1.07-2.67 1.07-5v-22.39h-21.32v23.09a7.36 7.36 0 0 0 1.2 4.65 9.72 9.72 0 0 0 4.4 2.61v22h-68Zm163.4 0q4.53-1.49 5.86-4c.89-1.67 1.34-4.87 1.34-9.58v-56.8c0-3.1-.5-5.27-1.47-6.51s-2.89-2.36-5.73-3.35v-22h133.55v41.53h-51.45v-2.77q0-6.51-3.33-9.31t-11.33-2.79h-5.07v21.23h35.19v24.37h-35.19v25.32h2.14a55.94 55.94 0 0 0 8.79-.56 12.43 12.43 0 0 0 5.47-2 7.12 7.12 0 0 0 2.66-4 26.77 26.77 0 0 0 .67-6.61v-5.65h51.45v45.43H830.98Zm152.22 0c3-1 5-2.24 5.87-3.73s1.33-4.15 1.33-8v-56.61q0-6-1.33-8.19t-5.87-3.72v-22h61.31l32 56.42v-22.51c-.18-4.22-.71-7.1-1.6-8.66s-2.76-2.63-5.6-3.25v-22h58.89v22c-3 1.11-5 2.42-5.86 3.91s-1.34 4.16-1.34 8v90.31h-54.11l-26.12-43.2c-1.25-1.86-2.44-3.82-3.6-5.86s-2.35-4.13-3.6-6.24v21.6q0 6 1.47 8.38c1 1.61 2.8 2.73 5.46 3.35v22h-57.3Z" class="cls-1"/><path d="M215.2 231.84c-83.22 51.94-42.12-106.41-36-130l162 22c-1.44 7.78-71.43 160.55-145 124Z" class="cls-2"/><path d="M163.6 198.84c-2.81 66.44 76.41 75.41 125 13Z" class="cls-2"/><path d="M276.09 6.84c-4-2.37-8.07-5.94-12.51-6.85-14.9 22.47-27.93 47.56-30.93 74.58 5 1.66 10.94 4.39 15.79.76 1.67-12.79 5.13-25.68 11-37.19 5.49-10.3 14.02-19.81 16.65-31.3Zm16.11 14.72c-3-3-9.79-7.16-13.62-4.33-9 19.14-18.49 38.54-25.73 58.31 3.26 2.71 10.72 8 14.07 3.83 8.24-17.12 17.58-33.79 24.49-51.5.79-2.03 2.31-4.72.79-6.31Zm34.16-5.44c-4.17-1.45-8.92-4.6-13.38-3.51-8.86 21.37-16.18 43.73-28.65 63.35-1.48 1.47-1 3.32-1.21 5.06 4.18 4.87 12.33 9.11 16.08 1.48 7.57-11.43 12.46-24.39 17.5-37.14 3.04-9.6 10.96-18.96 9.66-29.24Z" class="cls-1"/><path d="M308.67 92.04c-15.9-9.91.71-15.57 6.93-24.59 6.56-7.21 15.26-12.29 21.41-19.87 2.55-3.71 5.92-6.58 9.34-9.45 5.39-4.52 7.86-12.94 14.67-15.54 3.3 3.32 14.58 8 7.45 13.15-10.69 11.31-20.16 22.68-32.28 33.33-5.58 3.88-22.42 25.35-27.52 22.97Zm114.62-70.4c-4.78-3.26-16.58 11.7-22.27 14-25.18 18.22-52.63 33.11-75.94 53.65.13 3.87 5.13 10.62 9 11.23 7.64-3.84 14-10.33 21.09-14.78 21.9-20.05 50.94-32.75 74.36-51.42 4.08-4.59-2.88-9.93-6.24-12.68Z" class="cls-1"/><path d="M237.41 131.04c4 .21 5.76 6.62 3.41 9.55a41.49 41.49 0 0 1-22.72 1.45c-4-2.2-2.75-8.88 1.43-9.87 5.5-1.33 12.24-.96 17.88-1.13Zm19.9 23.98c3.09-1 5.65.54 8.37 1.6 4.54-.73 4.35 4.93 2.64 7.71-1.95 2.87-32.2 5.14-35.61 3.31-15.33-11.07 18.76-10.45 24.6-12.62Zm-23.81 34.23c.13-2.93-.61-7.22-4.39-6.54-5.27.53-9.89-2.53-14.81-3.36-17.8 9.71 10 13.25 18.47 10.82a4.54 4.54 0 0 1 .73-.92Zm-26.89-27.51c3.86.63 5.75-2.67 5.6-6.13-1.06-5.4-8.66-4.13-12.74-5.16-2.61 1.55-3.28 7.4-1.94 10 1.54 2.32 6.67 1.28 9.08 1.29Zm-12.75-24.9c-2.3-6-11.08-6.39-16.92-6.69a4.47 4.47 0 0 1-1.3 1.3c-1.57 4.37.68 7.11 5.26 8.81 5.72 3.01 14.46 7.07 12.96-3.42Zm-9.9 27.69c2.12-3.55 7.41-.55 10.4.54 3.24 1.13 2.77 5.78 2.44 8.53-5.51 2.98-16.34-1.96-12.84-9.07Zm18.33 39.42a4.32 4.32 0 0 1 1.31-.95c.15-6.57-.72-8.44-8.39-8.15-6.61.15-17.94-.46-13.3 9.54 6.37 2.7 13.59-.46 20.38-.44Zm-26.92-15.18c1.76-4.43-4.35-7.21-8-6.89-3.25.68-3.91 5.67-1.51 7.56s7.99 2.28 9.51-.67Zm-1.46 29.29c5.67-.41 4.51 8.31.57 9.81-6.91 1.83-13.54-10.62-.57-9.81Z" style="fill:#d66147"/></svg>