<svg xmlns="http://www.w3.org/2000/svg" viewBox="0 0 1314.68 279.91"><defs><style>.cls-1{fill:#49a033}.cls-2{fill:#f1931d}</style></defs><path d="M0 213.32c3-1 5-2.24 5.86-3.73s1.33-4.15 1.33-8v-56.61q0-6-1.33-8.19T0 133.07v-22h84.5a155.69 155.69 0 0 1 22.25 1.49 58.57 58.57 0 0 1 17.86 5.31 29.91 29.91 0 0 1 11.87 10.33q4.26 6.52 4.26 16.39 0 22.72-26.66 28.67a70 70 0 0 1 11.07 3 23.39 23.39 0 0 1 7.06 4 13.45 13.45 0 0 1 3.87 5.68 23.77 23.77 0 0 1 1.2 8v6.52q0 6.53 1.33 9.12t5.6 3.73v22H84.5a60.7 60.7 0 0 1-2.54-11.08 101.62 101.62 0 0 1-.66-12.39v-11.93a20.31 20.31 0 0 0-1.2-6.89q-1.2-3.35-6.27-5a20.46 20.46 0 0 0-4-.74c-1.43-.12-3.92-.19-7.47-.19v14.53q0 5.78 1.2 7.91t5.73 3.82v22H0Zm62.37-51h6.93q8.27-.18 11.33-3t3.07-9.87q0-7.44-3.6-9.87t-14.8-2.42h-2.93Zm292.54 51a22.72 22.72 0 0 0 3.87-1.86 5.71 5.71 0 0 0 2.13-2.33 11.94 11.94 0 0 0 .93-3.63 50 50 0 0 0 .27-5.77v-52.89a52.45 52.45 0 0 0-.27-5.86 12.12 12.12 0 0 0-.93-3.72 5.65 5.65 0 0 0-2.13-2.33 22.72 22.72 0 0 0-3.87-1.86v-22h82.9q30.39 0 43.58 7.36t13.2 23.74q0 11.73-6.4 18.15t-21.59 10.17q16.53 2.61 23.59 9.5t7.06 20.11q0 11.36-4.66 18.25a31.1 31.1 0 0 1-12.66 10.7 58.42 58.42 0 0 1-18.66 5 200.45 200.45 0 0 1-22.66 1.21h-83.7Zm68-53.81q8.54 0 12.27-2.61t3.73-8.57q0-6.69-4-8.93c-2.67-1.49-6.66-2.24-12-2.24h-6.13v22.35Zm-6.13 50.27h6.13q9.33-.18 13.2-3.26t3.86-10.52q0-7.26-4.13-10.15c-2.76-1.92-7.06-2.88-12.93-2.88h-6.13Zm231.34-52.69h-54.11v-12.67a9.47 9.47 0 0 0-2.13-6.61q-2.13-2.33-7.73-2.32t-7.73 3.16q-2.13 3.16-2.13 9.68v48.42q.25 7.64 2.4 10.89t8 3.26q5.6 0 7.47-2.89t1.86-9.22v-15.45h54.11v41.15a116.88 116.88 0 0 1-29 10 145.54 145.54 0 0 1-16.26 2.33q-8.54.74-18.93.74-20.79 0-33.58-3.16t-19.86-8.47q-7.07-5.31-9.46-12.29a44.13 44.13 0 0 1-2.4-14.43v-50.32a48.91 48.91 0 0 1 2.4-15.45 26.81 26.81 0 0 1 9.46-12.76q7.05-5.49 19.59-8.65t32.73-3.19a180.16 180.16 0 0 1 35.58 3.26 112.23 112.23 0 0 1 29.72 10.33Zm19.46 56.23c3-1 5-2.3 5.86-3.91s1.34-4.22 1.34-7.82v-56.61c0-3.84-.5-6.54-1.47-8.1s-2.89-2.82-5.73-3.81v-22h68v22c-2.31 1-3.82 2-4.53 3.07s-1.07 2.82-1.07 5.3v18.07h21.33v-17.67q0-3.91-1.07-5.59t-4.8-3.16v-22h68v22q-4.28 1.49-5.73 3.91t-1.51 7.84v56.79c0 3.85.44 6.51 1.33 8s2.84 2.74 5.87 3.73v22h-68v-22c2.49-1 4.09-2 4.8-3s1.07-2.67 1.07-5v-22.39h-21.32v23.09a7.36 7.36 0 0 0 1.2 4.65 9.72 9.72 0 0 0 4.4 2.61v22h-68Zm163.4 0q4.53-1.49 5.86-4c.89-1.67 1.34-4.87 1.34-9.58v-56.8c0-3.1-.5-5.27-1.47-6.51s-2.89-2.36-5.73-3.35v-22h133.55v41.53h-51.45v-2.77q0-6.51-3.33-9.31t-11.33-2.79h-5.07v21.23h35.19v24.37h-35.19v25.32h2.14a55.94 55.94 0 0 0 8.79-.56 12.43 12.43 0 0 0 5.47-2 7.12 7.12 0 0 0 2.66-4 26.77 26.77 0 0 0 .67-6.61v-5.65h51.45v45.43H830.98Zm152.22 0c3-1 5-2.24 5.87-3.73s1.33-4.15 1.33-8v-56.61q0-6-1.33-8.19t-5.87-3.72v-22h61.31l32 56.42v-22.51c-.18-4.22-.71-7.1-1.6-8.66s-2.76-2.63-5.6-3.25v-22h58.89v22c-3 1.11-5 2.42-5.86 3.91s-1.34 4.16-1.34 8v90.31h-54.11l-26.12-43.2c-1.25-1.86-2.44-3.82-3.6-5.86s-2.35-4.13-3.6-6.24v21.6q0 6 1.47 8.38c1 1.61 2.8 2.73 5.46 3.35v22h-57.3Zm-627.92 54.26a2.25 2.25 0 0 0 1.29-.8 3.68 3.68 0 0 0 .29-1.73v-12.21a3.77 3.77 0 0 0-.29-1.76 2.26 2.26 0 0 0-1.29-.81v-4.74h15.56v4.74a2.57 2.57 0 0 0-1.49.81 3 3 0 0 0-.38 1.76v13.74h.41a6 6 0 0 0 2.78-.51 1.85 1.85 0 0 0 .73-1.7v-5h10.7v12.93h-28.31Zm42.29-3.57v1.68a3.14 3.14 0 0 0 .43 1.91 2 2 0 0 0 1.61.54 1.9 1.9 0 0 0 1.61-.58 3.5 3.5 0 0 0 .44-2v-.28h10.7v4.94a21.68 21.68 0 0 1-5.64 1.95 37.23 37.23 0 0 1-7.11.58 41.17 41.17 0 0 1-5.93-.36 11.9 11.9 0 0 1-3.92-1.18 5 5 0 0 1-2.17-2.19 7.74 7.74 0 0 1-.67-3.38v-6.54a7.06 7.06 0 0 1 .59-3 4.86 4.86 0 0 1 2-2.15 11.28 11.28 0 0 1 3.89-1.29 37.9 37.9 0 0 1 6.2-.42 34 34 0 0 1 7.14.58 8.82 8.82 0 0 1 3.8 1.65 4.47 4.47 0 0 1 1.52 2.55 17.51 17.51 0 0 1 .29 3.29v3.7Zm4.21-4.22v-.32a4.59 4.59 0 0 0-.35-1.89c-.24-.51-.84-.76-1.82-.76s-1.47.23-1.72.68a4.6 4.6 0 0 0-.38 2.17v.17Zm26.02-6.39a14.38 14.38 0 0 1 2.75-.8 17.83 17.83 0 0 1 3.1-.24 16.55 16.55 0 0 1 4.77.56 6.86 6.86 0 0 1 2.69 1.45 4.25 4.25 0 0 1 1.19 2 7.8 7.8 0 0 1 .3 2.08v7.19a9.5 9.5 0 0 1-.38 2.69 4.57 4.57 0 0 1-1.61 2.27 9.28 9.28 0 0 1-3.54 1.57 26.13 26.13 0 0 1-6.17.58 39.65 39.65 0 0 1-7.6-.64 23.54 23.54 0 0 1-6.08-2.05v-17.7a3.29 3.29 0 0 0-.27-1.53 2.33 2.33 0 0 0-1.08-.88v-4.42h11.93Zm0 13.9a6.07 6.07 0 0 0 .76.22 3.58 3.58 0 0 0 .7.06 2.79 2.79 0 0 0 2.08-.6 3.24 3.24 0 0 0 .55-2.17v-5.26q0-1.89-2-1.89a6.76 6.76 0 0 0-2 .32Zm29.4-3.29v1.68a3.06 3.06 0 0 0 .44 1.91 2 2 0 0 0 1.6.54 1.9 1.9 0 0 0 1.61-.58 3.5 3.5 0 0 0 .44-2v-.28h10.7v4.94a21.68 21.68 0 0 1-5.64 1.95 37.23 37.23 0 0 1-7.11.58 41.27 41.27 0 0 1-5.93-.36 11.9 11.9 0 0 1-3.92-1.18 5 5 0 0 1-2.16-2.19 7.59 7.59 0 0 1-.68-3.38v-6.54a7.06 7.06 0 0 1 .59-3 4.83 4.83 0 0 1 2-2.15 11.14 11.14 0 0 1 3.88-1.29 37.9 37.9 0 0 1 6.2-.42 34 34 0 0 1 7.14.58 8.82 8.82 0 0 1 3.8 1.65 4.42 4.42 0 0 1 1.52 2.55 16.71 16.71 0 0 1 .29 3.29v3.7Zm4.21-4.22v-.32a4.59 4.59 0 0 0-.35-1.89c-.24-.51-.84-.76-1.82-.76s-1.47.23-1.72.68a4.6 4.6 0 0 0-.38 2.17v.17Zm14.46 8.11a2.38 2.38 0 0 0 1.14-.86 3.25 3.25 0 0 0 .27-1.55v-6a4.09 4.09 0 0 0-.3-1.57 2.27 2.27 0 0 0-1.11-.84v-4.44h11.64v1.29a17.68 17.68 0 0 1 3.45-1.19 17.07 17.07 0 0 1 3.69-.38 12.6 12.6 0 0 1 4.47.64 6.37 6.37 0 0 1 2.4 1.53 3.76 3.76 0 0 1 1 1.85 8.94 8.94 0 0 1 .18 1.6v7.51a3.41 3.41 0 0 0 .26 1.57 2.62 2.62 0 0 0 1.08.84v4.42h-11.5c-.12-.48-.21-.93-.29-1.35a12.72 12.72 0 0 1-.18-1.28q-.06-.66-.09-1.47v-8.07a2.75 2.75 0 0 0-.53-1.89 2.26 2.26 0 0 0-1.7-.56 7.19 7.19 0 0 0-1.87.28v7.51a3.41 3.41 0 0 0 .26 1.57 2.6 2.6 0 0 0 1.09.84v4.42h-13.36Zm56.09-8.35h-10v-.4a3.84 3.84 0 0 0-.32-1.71c-.21-.44-.81-.66-1.78-.66a2.77 2.77 0 0 0-1.55.4 1.15 1.15 0 0 0-.61 1 1.27 1.27 0 0 0 .84 1.17 13.81 13.81 0 0 0 3.37.76c1.63.24 3.12.48 4.44.72a13.09 13.09 0 0 1 3.36 1 5.48 5.48 0 0 1 2.14 1.73 4.57 4.57 0 0 1 .76 2.75 4.88 4.88 0 0 1-.94 3.07 6.53 6.53 0 0 1-2.6 2 14.42 14.42 0 0 1-3.89 1 36.37 36.37 0 0 1-4.85.3 26.7 26.7 0 0 1-12.4-2.61v-5.1h9.94v.92a1.93 1.93 0 0 0 2.17 2.21 2.62 2.62 0 0 0 1.52-.4 1.27 1.27 0 0 0 .58-1.08 1.67 1.67 0 0 0-.2-.83 1.8 1.8 0 0 0-.79-.6 9.11 9.11 0 0 0-1.61-.48c-.68-.15-1.55-.3-2.6-.46-1.56-.24-2.94-.5-4.13-.77a12.8 12.8 0 0 1-3-1 4.53 4.53 0 0 1-1.81-1.53 4.09 4.09 0 0 1-.62-2.32q0-6.35 11.87-6.35a34.69 34.69 0 0 1 6.64.64 29.22 29.22 0 0 1 6 1.85Zm4.38 8.35a2.38 2.38 0 0 0 1.14-.86 3.25 3.25 0 0 0 .27-1.55v-6a4.09 4.09 0 0 0-.3-1.57 2.27 2.27 0 0 0-1.11-.84v-4.44h11.64v1.29a17.68 17.68 0 0 1 3.45-1.19 17.07 17.07 0 0 1 3.69-.38 13.93 13.93 0 0 1 3.83.46 8 8 0 0 1 2.72 1.39 20.78 20.78 0 0 1 3.94-1.43 18.48 18.48 0 0 1 4.19-.42 13.16 13.16 0 0 1 4.56.64 6.23 6.23 0 0 1 2.42 1.53 3.81 3.81 0 0 1 1 1.83 8.41 8.41 0 0 1 .17 1.54v7.59a3.26 3.26 0 0 0 .27 1.57 2.49 2.49 0 0 0 1.08.84v4.42h-11.49q-.18-.72-.3-1.35c-.07-.41-.13-.84-.17-1.28s-.07-.93-.09-1.47 0-1.16 0-1.88v-6.19a3 3 0 0 0-.58-1.89 2.26 2.26 0 0 0-1.7-.56 5.16 5.16 0 0 0-.79.06c-.25 0-.59.12-1 .22v7.51a3.41 3.41 0 0 0 .26 1.57 2.62 2.62 0 0 0 1.08.84v4.42h-11.51c-.12-.48-.21-.93-.29-1.35a12.72 12.72 0 0 1-.18-1.28c0-.44-.07-.93-.08-1.47s0-1.16 0-1.88v-6.19a2.75 2.75 0 0 0-.53-1.89 2.26 2.26 0 0 0-1.7-.56 9 9 0 0 0-1.87.28v7.51a3.26 3.26 0 0 0 .27 1.57 2.49 2.49 0 0 0 1.08.84v4.42h-13.37Zm46.5 0a2.49 2.49 0 0 0 1.14-.86 3.4 3.4 0 0 0 .26-1.55v-6a4.34 4.34 0 0 0-.29-1.57 2.38 2.38 0 0 0-1.11-.84v-4.44h12v12.85a3.28 3.28 0 0 0 .26 1.57 2.49 2.49 0 0 0 1.08.84v4.42h-13.34Zm12-19.48a2.53 2.53 0 0 1-1.63 2.23 9 9 0 0 1-4.21.87 8.81 8.81 0 0 1-4.19-.87 2.32 2.32 0 0 1 0-4.41 8.81 8.81 0 0 1 4.19-.87 9 9 0 0 1 4.21.87 2.51 2.51 0 0 1 1.67 2.18Zm15.95 4.22h3.57v4.54h-3.57v8.35a1.87 1.87 0 0 0 .7 1.63 5.13 5.13 0 0 0 2.4.66h.47v4.38a34 34 0 0 1-5.5.48 19.79 19.79 0 0 1-4.53-.42 6.39 6.39 0 0 1-2.66-1.21 3.73 3.73 0 0 1-1.26-1.84 8.24 8.24 0 0 1-.32-2.35v-9.72h-1.41v-4.5h1.41v-3.8l10.7-2.05Zm17.41 0h3.57v4.54h-3.57v8.35a1.87 1.87 0 0 0 .7 1.63 5.13 5.13 0 0 0 2.4.66h.47v4.38a34 34 0 0 1-5.5.48 19.79 19.79 0 0 1-4.53-.42 6.39 6.39 0 0 1-2.66-1.21 3.73 3.73 0 0 1-1.26-1.84 7.9 7.9 0 0 1-.32-2.35v-9.72h-1.41v-4.5h1.41v-3.8l10.7-2.1Zm16.51 11.37v1.68a3.13 3.13 0 0 0 .44 1.91 2 2 0 0 0 1.61.54 1.91 1.91 0 0 0 1.61-.58 3.51 3.51 0 0 0 .43-2v-.28h10.71v4.94a21.87 21.87 0 0 1-5.65 1.95 37.12 37.12 0 0 1-7.1.58 41.42 41.42 0 0 1-5.94-.36 12 12 0 0 1-3.92-1.18 5.06 5.06 0 0 1-2.16-2.19 7.6 7.6 0 0 1-.67-3.38v-6.54a7.06 7.06 0 0 1 .58-3 4.83 4.83 0 0 1 2-2.15 11.13 11.13 0 0 1 3.89-1.29 37.81 37.81 0 0 1 6.2-.42 33.82 33.82 0 0 1 7.13.58 8.71 8.71 0 0 1 3.8 1.65 4.42 4.42 0 0 1 1.52 2.55 16.68 16.68 0 0 1 .3 3.29v3.7Zm4.21-4.22v-.32a4.59 4.59 0 0 0-.35-1.89c-.23-.51-.84-.76-1.81-.76s-1.47.23-1.73.68a4.73 4.73 0 0 0-.38 2.17v.17Zm14.28 8.11a2.61 2.61 0 0 0 1.11-.86 3 3 0 0 0 .29-1.55v-13.13a3.39 3.39 0 0 0-.32-1.55 2.84 2.84 0 0 0-1.08-.86v-4.42h12v20a3.41 3.41 0 0 0 .26 1.57 2.6 2.6 0 0 0 1.09.84v4.42H663.2Zm33-13.06a33.69 33.69 0 0 1 6.26-2 34.63 34.63 0 0 1 6.79-.6 27.19 27.19 0 0 1 5.44.46 10.14 10.14 0 0 1 3.53 1.33 5.09 5.09 0 0 1 1.9 2.11 6.63 6.63 0 0 1 .59 2.85v6.5a4.13 4.13 0 0 0 .29 1.57 2.38 2.38 0 0 0 1.11.84v4.42h-11.49v-1.41a19.31 19.31 0 0 1-3.63 1.41 14.63 14.63 0 0 1-3.62.4 10.9 10.9 0 0 1-6.2-1.46 4.86 4.86 0 0 1-2.11-4.24 4.28 4.28 0 0 1 1.87-3.74 16.1 16.1 0 0 1 5.56-2.08l7.72-1.73v-.2a3.13 3.13 0 0 0-.44-1.91 2 2 0 0 0-1.57-.52 1.78 1.78 0 0 0-1.63.64 3.58 3.58 0 0 0-.41 1.93v.16h-9.96Zm12.17 9.68a7 7 0 0 0-1.84.7 1.21 1.21 0 0 0-.62 1.07 1.08 1.08 0 0 0 .47.9 2 2 0 0 0 1.23.34 5.8 5.8 0 0 0 2.63-.72V264Zm32.95 7.8v-1.33a15.57 15.57 0 0 1-3.45 1.23 17 17 0 0 1-3.68.38 14.76 14.76 0 0 1-3.74-.4 7 7 0 0 1-2.49-1.13 4.12 4.12 0 0 1-1.37-1.66 5 5 0 0 1-.41-2v-7.91a4.09 4.09 0 0 0-.3-1.57 2.27 2.27 0 0 0-1.11-.84v-4.45h11.52q.18.72.3 1.35c.07.41.13.84.17 1.28s.07.93.09 1.45 0 1.14 0 1.87v6.25a2.94 2.94 0 0 0 .47 1.87 2.14 2.14 0 0 0 1.75.58 7.19 7.19 0 0 0 1.87-.28v-7.51a3.67 3.67 0 0 0-.32-1.57 2.49 2.49 0 0 0-1.08-.84v-4.45h12v12.85a3.41 3.41 0 0 0 .26 1.57 2.62 2.62 0 0 0 1.08.84v4.42Zm39.01-12.77h-9.94v-.4a4 4 0 0 0-.32-1.71c-.22-.44-.81-.66-1.79-.66a2.77 2.77 0 0 0-1.55.4 1.15 1.15 0 0 0-.61 1 1.27 1.27 0 0 0 .85 1.17 13.57 13.57 0 0 0 3.36.76c1.64.24 3.12.48 4.45.72a13.34 13.34 0 0 1 3.36 1 5.44 5.44 0 0 1 2.13 1.73 4.57 4.57 0 0 1 .76 2.75 4.94 4.94 0 0 1-.93 3.07 6.56 6.56 0 0 1-2.61 2 14.34 14.34 0 0 1-3.88 1 36.53 36.53 0 0 1-4.86.3 26.73 26.73 0 0 1-12.4-2.61v-5.1h9.94v.92a1.94 1.94 0 0 0 2.17 2.21 2.62 2.62 0 0 0 1.52-.4 1.25 1.25 0 0 0 .58-1.08 1.57 1.57 0 0 0-.2-.83 1.8 1.8 0 0 0-.79-.6 9.11 9.11 0 0 0-1.61-.48c-.68-.15-1.55-.3-2.6-.46-1.56-.24-2.94-.5-4.12-.77a12.89 12.89 0 0 1-3-1 4.53 4.53 0 0 1-1.81-1.53 4.09 4.09 0 0 1-.61-2.32q0-6.35 11.87-6.35a34.84 34.84 0 0 1 6.64.64 29.12 29.12 0 0 1 6 1.85Zm19.59-.2a8 8 0 0 1 .56-3.13 4.76 4.76 0 0 1 2-2.21 11 11 0 0 1 3.89-1.33 46 46 0 0 1 12.69 0 11.15 11.15 0 0 1 3.89 1.33 4.87 4.87 0 0 1 2 2.21 8 8 0 0 1 .55 3.13v6.26a8.12 8.12 0 0 1-.55 3.14 4.85 4.85 0 0 1-2 2.2 11 11 0 0 1-3.89 1.33 46 46 0 0 1-12.69 0 10.81 10.81 0 0 1-3.89-1.33 4.74 4.74 0 0 1-2-2.2 8.12 8.12 0 0 1-.56-3.14Zm7.6-14.58a4.79 4.79 0 0 1 2.75.76 2.22 2.22 0 0 1 1.11 1.85 2.25 2.25 0 0 1-1.14 1.87 5.14 5.14 0 0 1-5.41 0 2.24 2.24 0 0 1-1.11-1.89 2.22 2.22 0 0 1 1.11-1.85 4.73 4.73 0 0 1 2.69-.74Zm7.2 14.5a3.14 3.14 0 0 0-.44-1.89 2.55 2.55 0 0 0-3.19 0 3 3 0 0 0-.47 1.89v6.42a3 3 0 0 0 .47 1.89 2.51 2.51 0 0 0 3.16 0 3 3 0 0 0 .47-1.89Zm3-14.5a4.85 4.85 0 0 1 2.72.76 2.21 2.21 0 0 1 1.14 1.85 2.25 2.25 0 0 1-1.14 1.87 4.71 4.71 0 0 1-2.72.78 4.77 4.77 0 0 1-2.72-.76 2.23 2.23 0 0 1-1.14-1.89 2.21 2.21 0 0 1 1.14-1.85 4.85 4.85 0 0 1 2.7-.76Zm11.39 23.13a2.74 2.74 0 0 0 1.11-.86 3.09 3.09 0 0 0 .29-1.55v-13.13a3.68 3.68 0 0 0-.31-1.52 3 3 0 0 0-1.08-.86v-4.42h12v13.28l2.34-1.93a2.91 2.91 0 0 0 1-1.13 4.88 4.88 0 0 0 .23-1.72v-1.42h11.93v4.42a3.92 3.92 0 0 0-2.22 1.08l-3.39 2.81 3.27 4.54c.27.4.52.73.73 1a4.82 4.82 0 0 0 1.29 1.08 3.93 3.93 0 0 0 .85.34v4.42h-9.71a21.46 21.46 0 0 1-1.81-2.17c-.55-.75-1.1-1.51-1.64-2.29l-2.87-4.29v1.92a3.62 3.62 0 0 0 .24 1.57 2.26 2.26 0 0 0 1 .84v4.42h-13.25Zm30.76-8.55a8 8 0 0 1 .55-3.13 4.82 4.82 0 0 1 2-2.21 11.07 11.07 0 0 1 3.89-1.33 46 46 0 0 1 12.69 0 11.07 11.07 0 0 1 3.89 1.33 4.76 4.76 0 0 1 2 2.21 8 8 0 0 1 .56 3.13v6.26a8.12 8.12 0 0 1-.56 3.14 4.74 4.74 0 0 1-2 2.2 10.88 10.88 0 0 1-3.89 1.33 46 46 0 0 1-12.69 0 10.88 10.88 0 0 1-3.89-1.33 4.79 4.79 0 0 1-2-2.2 8.12 8.12 0 0 1-.55-3.14Zm14.79-.08a3.07 3.07 0 0 0-.44-1.89 1.93 1.93 0 0 0-1.6-.56 2 2 0 0 0-1.58.56 2.93 2.93 0 0 0-.47 1.89v6.42a2.91 2.91 0 0 0 .47 1.89 2.49 2.49 0 0 0 3.15 0 2.91 2.91 0 0 0 .47-1.89Zm14.39 8.63a2.74 2.74 0 0 0 1.11-.86 3 3 0 0 0 .29-1.55v-13.13a3.53 3.53 0 0 0-.32-1.55 2.92 2.92 0 0 0-1.08-.86v-4.42h12v20a3.41 3.41 0 0 0 .26 1.57 2.62 2.62 0 0 0 1.08.84v4.42h-13.34Zm17.02-8.55a8 8 0 0 1 .55-3.13 4.82 4.82 0 0 1 2-2.21 11.07 11.07 0 0 1 3.89-1.33 46 46 0 0 1 12.69 0 11 11 0 0 1 3.89 1.33 4.76 4.76 0 0 1 2 2.21 8 8 0 0 1 .56 3.13v6.26a8.12 8.12 0 0 1-.56 3.14 4.74 4.74 0 0 1-2 2.2 10.81 10.81 0 0 1-3.89 1.33 46 46 0 0 1-12.69 0 10.88 10.88 0 0 1-3.89-1.33 4.79 4.79 0 0 1-2-2.2 8.12 8.12 0 0 1-.55-3.14Zm14.79-.08a3.07 3.07 0 0 0-.44-1.89 1.93 1.93 0 0 0-1.6-.56 2 2 0 0 0-1.58.56 2.93 2.93 0 0 0-.47 1.89v6.42a2.91 2.91 0 0 0 .47 1.89 2.51 2.51 0 0 0 3.16 0 3 3 0 0 0 .46-1.89Zm41.47-6.63v4.42a2.47 2.47 0 0 0-1.09.86 3.43 3.43 0 0 0-.26 1.55v13.29a7.08 7.08 0 0 1-.7 3.29 5.5 5.5 0 0 1-2.16 2.23 11 11 0 0 1-3.78 1.25 35.87 35.87 0 0 1-5.64.38 34 34 0 0 1-12.34-2v-4.78h9.77v.08a2.48 2.48 0 0 0 .44 1.53 1.85 1.85 0 0 0 1.6.6 2 2 0 0 0 1.64-.6 3.34 3.34 0 0 0 .47-2v-1.9a20.72 20.72 0 0 1-3.33 1 16.81 16.81 0 0 1-3.28.32 10.54 10.54 0 0 1-6-1.51 4.63 4.63 0 0 1-2.23-4v-8a7.35 7.35 0 0 1 .39-2.39 4.84 4.84 0 0 1 1.31-2 6.46 6.46 0 0 1 2.49-1.39 13 13 0 0 1 3.89-.5 14.49 14.49 0 0 1 7.07 1.69v-1.42Zm-12.13 5.5a5.77 5.77 0 0 0-2-.36 2.18 2.18 0 0 0-1.64.52 3 3 0 0 0-.46 1.93v4.34a2.81 2.81 0 0 0 .55 1.81 2.37 2.37 0 0 0 1.73.52 5.37 5.37 0 0 0 1.81-.36Zm15.75 9.76a2.38 2.38 0 0 0 1.14-.86 3.25 3.25 0 0 0 .27-1.55v-6a4.09 4.09 0 0 0-.3-1.57 2.27 2.27 0 0 0-1.11-.84v-4.44h12v12.85a3.41 3.41 0 0 0 .26 1.57 2.6 2.6 0 0 0 1.09.84v4.42h-13.35Zm12-19.48a2.54 2.54 0 0 1-1.64 2.23 8.92 8.92 0 0 1-4.21.87 8.77 8.77 0 0 1-4.18-.87 2.31 2.31 0 0 1 0-4.41 8.77 8.77 0 0 1 4.18-.87 8.92 8.92 0 0 1 4.21.87 2.52 2.52 0 0 1 1.69 2.18Zm29.35 11.13h-9.94v-.4a3.83 3.83 0 0 0-.33-1.71c-.21-.44-.8-.66-1.78-.66a2.77 2.77 0 0 0-1.55.4 1.15 1.15 0 0 0-.61 1 1.27 1.27 0 0 0 .85 1.17 13.57 13.57 0 0 0 3.36.76q2.46.36 4.44.72a13.3 13.3 0 0 1 3.37 1 5.51 5.51 0 0 1 2.13 1.73 4.57 4.57 0 0 1 .76 2.75 4.88 4.88 0 0 1-.94 3.07 6.53 6.53 0 0 1-2.6 2 14.42 14.42 0 0 1-3.89 1 36.37 36.37 0 0 1-4.85.3 26.7 26.7 0 0 1-12.4-2.61v-5.1h9.94v.92a1.93 1.93 0 0 0 2.17 2.21 2.62 2.62 0 0 0 1.52-.4 1.25 1.25 0 0 0 .58-1.08 1.67 1.67 0 0 0-.2-.83 1.8 1.8 0 0 0-.79-.6 9.11 9.11 0 0 0-1.61-.48c-.68-.15-1.55-.3-2.6-.46-1.56-.24-2.94-.5-4.13-.77a12.8 12.8 0 0 1-3-1 4.53 4.53 0 0 1-1.81-1.53 4.09 4.09 0 0 1-.62-2.32q0-6.35 11.88-6.35a34.66 34.66 0 0 1 6.63.64 29 29 0 0 1 6 1.85Zm28.54.68h-10.06v-1.39a1.91 1.91 0 0 0-.5-1.49 2.21 2.21 0 0 0-1.49-.44 1.91 1.91 0 0 0-1.52.54 3 3 0 0 0-.47 1.91v6.38a3 3 0 0 0 .47 1.87 2.35 2.35 0 0 0 3.07 0 3.12 3.12 0 0 0 .44-1.89v-1.68h10.06v6.22a21.83 21.83 0 0 1-5.47 1.91 33.55 33.55 0 0 1-6.7.58 36.23 36.23 0 0 1-6.22-.44 10.73 10.73 0 0 1-3.83-1.33 4.74 4.74 0 0 1-2-2.2 7.94 7.94 0 0 1-.56-3.14v-6.62a7.28 7.28 0 0 1 .53-2.83 4.55 4.55 0 0 1 1.9-2.13 10.87 10.87 0 0 1 3.65-1.33 29.83 29.83 0 0 1 5.79-.46 36.34 36.34 0 0 1 7 .62 24.77 24.77 0 0 1 5.88 2Zm3.62 7.67a2.71 2.71 0 0 0 1.12-.86 3.09 3.09 0 0 0 .29-1.55v-13.13a3.68 3.68 0 0 0-.32-1.55 3 3 0 0 0-1.09-.86v-4.42h12v8.24a17.86 17.86 0 0 1 3.28-1.07 16.81 16.81 0 0 1 3.45-.34 13.17 13.17 0 0 1 4.5.62 6.22 6.22 0 0 1 2.43 1.51 3.71 3.71 0 0 1 1 1.83 8.66 8.66 0 0 1 .18 1.58v7.59a3.41 3.41 0 0 0 .26 1.57 2.62 2.62 0 0 0 1.08.84v4.42h-11.52c-.11-.48-.21-.93-.29-1.35a8.79 8.79 0 0 1-.15-1.28v-9.54a3 3 0 0 0-.59-1.89 2.23 2.23 0 0 0-1.69-.56 7.63 7.63 0 0 0-1.82.28v7.51a3.26 3.26 0 0 0 .27 1.57 2.49 2.49 0 0 0 1.08.84v4.42h-13.34Zm42.4-3.89v1.68a3.13 3.13 0 0 0 .44 1.91 2 2 0 0 0 1.61.54 1.9 1.9 0 0 0 1.61-.58 3.5 3.5 0 0 0 .44-2v-.28h10.7v4.94a21.8 21.8 0 0 1-5.64 1.95 37.23 37.23 0 0 1-7.11.58 41.42 41.42 0 0 1-5.94-.36 11.91 11.91 0 0 1-3.91-1.18 5 5 0 0 1-2.17-2.19 7.6 7.6 0 0 1-.67-3.38v-6.54a7.06 7.06 0 0 1 .58-3 4.89 4.89 0 0 1 2-2.15 11.21 11.21 0 0 1 3.89-1.29 37.81 37.81 0 0 1 6.2-.42 33.82 33.82 0 0 1 7.13.58 8.81 8.81 0 0 1 3.81 1.65 4.53 4.53 0 0 1 1.52 2.55 17.51 17.51 0 0 1 .29 3.29v3.7Zm4.21-4.22v-.32a4.43 4.43 0 0 0-.35-1.89c-.23-.51-.84-.76-1.81-.76s-1.47.23-1.73.68a4.73 4.73 0 0 0-.38 2.17v.17Zm14.45 8.11a2.49 2.49 0 0 0 1.14-.86 3.4 3.4 0 0 0 .26-1.55v-6a4.34 4.34 0 0 0-.29-1.57 2.38 2.38 0 0 0-1.11-.84v-4.44h11.68v1.29a17.68 17.68 0 0 1 3.45-1.19 17 17 0 0 1 3.68-.38 13.88 13.88 0 0 1 3.83.46 8 8 0 0 1 2.72 1.39 20.85 20.85 0 0 1 3.95-1.43 18.38 18.38 0 0 1 4.18-.42 13.08 13.08 0 0 1 4.56.64 6.35 6.35 0 0 1 2.43 1.53 3.71 3.71 0 0 1 1 1.83 8.56 8.56 0 0 1 .18 1.54v7.59a3.41 3.41 0 0 0 .26 1.57 2.6 2.6 0 0 0 1.09.84v4.42h-11.47c-.11-.48-.21-.93-.29-1.35a12.72 12.72 0 0 1-.18-1.28c0-.44-.06-.93-.08-1.47s0-1.16 0-1.88v-6.19a3 3 0 0 0-.59-1.89 2.23 2.23 0 0 0-1.69-.56 5 5 0 0 0-.79.06c-.26 0-.6.12-1 .22v7.51a3.26 3.26 0 0 0 .27 1.57 2.49 2.49 0 0 0 1.08.84v4.42h-11.59q-.18-.72-.3-1.35c-.07-.41-.13-.84-.17-1.28s-.07-.93-.09-1.47 0-1.16 0-1.88v-6.19a2.76 2.76 0 0 0-.52-1.89 2.27 2.27 0 0 0-1.7-.56 8.89 8.89 0 0 0-1.87.28v7.51a3.41 3.41 0 0 0 .26 1.57 2.62 2.62 0 0 0 1.08.84v4.42h-13.33Zm84.74-22.37 5.61 18.92a9 9 0 0 0 .91 2.21 2.4 2.4 0 0 0 1.26.92v4.74h-15.27v-4.74c.9-.37 1.35-.86 1.35-1.44a1.59 1.59 0 0 0 0-.29 5 5 0 0 0-.15-.52h-5.84a3.55 3.55 0 0 0-.18.81c0 .69.53 1.17 1.58 1.44v4.74h-13.45v-4.74a4.53 4.53 0 0 0 .67-.46 2 2 0 0 0 .44-.52 3.88 3.88 0 0 0 .32-.73c.1-.28.21-.63.32-1.06l5.27-19.28Zm-7.43 15.06-1.23-4.75c-.11-.48-.24-1-.38-1.54s-.28-1.27-.43-2.15h-.12c-.08.59-.18 1.2-.29 1.83s-.24 1.25-.35 1.86l-.94 4.74Zm17.9 7.31a2.49 2.49 0 0 0 1.14-.86 3.4 3.4 0 0 0 .26-1.55v-6a4.34 4.34 0 0 0-.29-1.57 2.38 2.38 0 0 0-1.11-.84v-4.44h11.64v1.29a17.24 17.24 0 0 1 3.45-1.19 17 17 0 0 1 3.68-.38 12.6 12.6 0 0 1 4.47.64 6.21 6.21 0 0 1 2.4 1.53 3.78 3.78 0 0 1 1 1.85 9.81 9.81 0 0 1 .17 1.6v7.51a3.26 3.26 0 0 0 .27 1.57 2.49 2.49 0 0 0 1.08.84v4.42h-11.49q-.18-.72-.3-1.35a12.75 12.75 0 0 1-.17-1.28q-.06-.66-.09-1.47v-8.07a2.75 2.75 0 0 0-.53-1.89 2.23 2.23 0 0 0-1.69-.56 7.13 7.13 0 0 0-1.87.28v7.51a3.28 3.28 0 0 0 .26 1.57 2.62 2.62 0 0 0 1.08.84v4.42h-13.33Zm42.87-14.5a14.29 14.29 0 0 1 2.74-.8 17.91 17.91 0 0 1 3.1-.24 16.55 16.55 0 0 1 4.77.56 6.72 6.72 0 0 1 2.69 1.45 4.35 4.35 0 0 1 1.2 2 8.2 8.2 0 0 1 .29 2.08v7.19a9.16 9.16 0 0 1-.38 2.69 4.5 4.5 0 0 1-1.61 2.27 9.22 9.22 0 0 1-3.53 1.57 26.19 26.19 0 0 1-6.17.58 39.83 39.83 0 0 1-7.61-.64 23.67 23.67 0 0 1-6.08-2.05v-17.7a3.45 3.45 0 0 0-.26-1.53 2.44 2.44 0 0 0-1.08-.88v-4.42h11.93Zm0 13.9a5.62 5.62 0 0 0 .76.22 3.44 3.44 0 0 0 .7.06 2.78 2.78 0 0 0 2.07-.6 3.23 3.23 0 0 0 .56-2.17v-5.26c0-1.26-.68-1.89-2-1.89a6.69 6.69 0 0 0-2 .32Zm19.12-12.46a33.46 33.46 0 0 1 6.26-2 34.6 34.6 0 0 1 6.78-.6 27.05 27.05 0 0 1 5.44.46 10.28 10.28 0 0 1 3.54 1.33 5.09 5.09 0 0 1 1.9 2.11 6.63 6.63 0 0 1 .58 2.85v6.5a4.09 4.09 0 0 0 .3 1.57 2.27 2.27 0 0 0 1.11.84v4.42h-11.43v-1.41a19.25 19.25 0 0 1-3.62 1.41 14.66 14.66 0 0 1-3.63.4 10.92 10.92 0 0 1-6.2-1.46 4.85 4.85 0 0 1-2.1-4.24 4.26 4.26 0 0 1 1.87-3.74 16.12 16.12 0 0 1 5.55-2.08l7.72-1.73v-.2a3.14 3.14 0 0 0-.43-1.91 2 2 0 0 0-1.61-.54 1.8 1.8 0 0 0-1.64.64 3.67 3.67 0 0 0-.41 1.93v.16h-9.94Zm12.16 9.68a7.09 7.09 0 0 0-1.84.7 1.2 1.2 0 0 0-.61 1.07 1.05 1.05 0 0 0 .47.9 2 2 0 0 0 1.22.34 5.77 5.77 0 0 0 2.63-.72V264Zm32.99 7.8v-1.33a15.57 15.57 0 0 1-3.45 1.23 17.07 17.07 0 0 1-3.69.38 14.76 14.76 0 0 1-3.74-.4 7.18 7.18 0 0 1-2.49-1.13 4.12 4.12 0 0 1-1.37-1.66 5.11 5.11 0 0 1-.41-2v-7.91a4.34 4.34 0 0 0-.29-1.57 2.38 2.38 0 0 0-1.11-.84v-4.45h11.52c.11.48.21.93.29 1.35a12.72 12.72 0 0 1 .18 1.28c0 .44.06.93.08 1.45s0 1.14 0 1.87v6.25a3 3 0 0 0 .47 1.87 2.16 2.16 0 0 0 1.76.58 7.25 7.25 0 0 0 1.87-.28v-7.51a3.83 3.83 0 0 0-.32-1.57 2.6 2.6 0 0 0-1.09-.84v-4.45h12v12.85a3.26 3.26 0 0 0 .27 1.57 2.49 2.49 0 0 0 1.08.84v4.42Zm-57.97-51V223a3.13 3.13 0 0 0 .44 1.91 2 2 0 0 0 1.61.54 1.9 1.9 0 0 0 1.61-.58 3.5 3.5 0 0 0 .44-2v-.28h10.7v4.94a21.8 21.8 0 0 1-5.64 1.95 37.23 37.23 0 0 1-7.11.58 41.42 41.42 0 0 1-5.94-.36 12.05 12.05 0 0 1-3.92-1.18 5.06 5.06 0 0 1-2.16-2.19 7.6 7.6 0 0 1-.67-3.38v-6.54a7.06 7.06 0 0 1 .58-3 4.89 4.89 0 0 1 2-2.15 11.21 11.21 0 0 1 3.89-1.29 37.81 37.81 0 0 1 6.2-.42 33.82 33.82 0 0 1 7.13.58 8.81 8.81 0 0 1 3.81 1.65 4.53 4.53 0 0 1 1.52 2.55 17.51 17.51 0 0 1 .29 3.29v3.7Zm4.21-4.22v-.32a4.43 4.43 0 0 0-.35-1.89c-.23-.51-.84-.76-1.81-.76s-1.47.23-1.73.68a4.73 4.73 0 0 0-.38 2.17v.12Zm15.27 9.44a3 3 0 0 1 1.52-2.57 7.13 7.13 0 0 1 7.45 0 3 3 0 0 1 1.55 2.57 3 3 0 0 1-1.55 2.55 7.08 7.08 0 0 1-7.45 0 3.06 3.06 0 0 1-1.52-2.55Zm39.82-18.96a2.11 2.11 0 0 0-1 .89 11.41 11.41 0 0 0-.82 2.12l-5.2 19h-16.55l-5.62-19.68a4.53 4.53 0 0 0-.64-1.42 3.88 3.88 0 0 0-1.23-.95v-4.7h15.06v4.74q-1.11.48-1.11 1.29a3.44 3.44 0 0 0 0 .46c0 .15 0 .31.09.5l1.75 7.23c.15.64.28 1.27.38 1.89s.24 1.42.44 2.41h.12c.15-1.21.28-2.15.38-2.83a11.94 11.94 0 0 1 .26-1.47l1.7-7.43c0-.16.06-.29.08-.38a1.65 1.65 0 0 0 0-.34c0-.64-.49-1.09-1.46-1.33v-4.74h13.37Zm0 18.96a3 3 0 0 1 1.51-2.57 7.15 7.15 0 0 1 7.46 0 3 3 0 0 1 1.55 2.57 3 3 0 0 1-1.55 2.55 7.09 7.09 0 0 1-7.46 0 3.07 3.07 0 0 1-1.51-2.55Z" class="cls-1"/><path d="M215.2 231.84c-83.22 51.94-42.12-106.41-36-130l162 22c-1.44 7.78-71.43 160.55-145 124Z" class="cls-2"/><path d="M163.6 198.84c-2.81 66.44 76.41 75.41 125 13Z" class="cls-2"/><path d="M276.09 6.84c-4-2.37-8.07-5.94-12.51-6.85-14.9 22.47-27.93 47.56-30.93 74.58 5 1.66 10.94 4.39 15.79.76 1.67-12.79 5.13-25.68 11-37.19 5.49-10.3 14.02-19.81 16.65-31.3Zm16.11 14.72c-3-3-9.79-7.16-13.62-4.33-9 19.14-18.49 38.54-25.73 58.31 3.26 2.71 10.72 8 14.07 3.83 8.24-17.12 17.58-33.79 24.49-51.5.79-2.03 2.31-4.72.79-6.31Zm34.16-5.44c-4.17-1.45-8.92-4.6-13.38-3.51-8.86 21.37-16.18 43.73-28.65 63.35-1.48 1.47-1 3.32-1.21 5.06 4.18 4.87 12.33 9.11 16.08 1.48 7.57-11.43 12.46-24.39 17.5-37.14 3.04-9.6 10.96-18.96 9.66-29.24Z" class="cls-1"/><path d="M308.67 92.04c-15.9-9.91.71-15.57 6.93-24.59 6.56-7.21 15.26-12.29 21.41-19.87 2.55-3.71 5.92-6.58 9.34-9.45 5.39-4.52 7.86-12.94 14.67-15.54 3.3 3.32 14.58 8 7.45 13.15-10.69 11.31-20.16 22.68-32.28 33.33-5.58 3.88-22.42 25.35-27.52 22.97Zm114.62-70.4c-4.78-3.26-16.58 11.7-22.27 14-25.18 18.22-52.63 33.11-75.94 53.65.13 3.87 5.13 10.62 9 11.23 7.64-3.84 14-10.33 21.09-14.78 21.9-20.05 50.94-32.75 74.36-51.42 4.08-4.59-2.88-9.93-6.24-12.68Z" class="cls-1"/><path d="M237.41 131.04c4 .21 5.76 6.62 3.41 9.55a41.49 41.49 0 0 1-22.72 1.45c-4-2.2-2.75-8.88 1.43-9.87 5.5-1.33 12.24-.96 17.88-1.13Zm19.9 23.98c3.09-1 5.65.54 8.37 1.6 4.54-.73 4.35 4.93 2.64 7.71-1.95 2.87-32.2 5.14-35.61 3.31-15.33-11.07 18.76-10.45 24.6-12.62Zm-23.81 34.23c.13-2.93-.61-7.22-4.39-6.54-5.27.53-9.89-2.53-14.81-3.36-17.8 9.71 10 13.25 18.47 10.82a4.54 4.54 0 0 1 .73-.92Zm-26.89-27.51c3.86.63 5.75-2.67 5.6-6.13-1.06-5.4-8.66-4.13-12.74-5.16-2.61 1.55-3.28 7.4-1.94 10 1.54 2.32 6.67 1.28 9.08 1.29Zm-12.75-24.9c-2.3-6-11.08-6.39-16.92-6.69a4.47 4.47 0 0 1-1.3 1.3c-1.57 4.37.68 7.11 5.26 8.81 5.72 3.01 14.46 7.07 12.96-3.42Zm-9.9 27.69c2.12-3.55 7.41-.55 10.4.54 3.24 1.13 2.77 5.78 2.44 8.53-5.51 2.98-16.34-1.96-12.84-9.07Zm18.33 39.42a4.32 4.32 0 0 1 1.31-.95c.15-6.57-.72-8.44-8.39-8.15-6.61.15-17.94-.46-13.3 9.54 6.37 2.7 13.59-.46 20.38-.44Zm-26.92-15.18c1.76-4.43-4.35-7.21-8-6.89-3.25.68-3.91 5.67-1.51 7.56s7.99 2.28 9.51-.67Zm-1.46 29.29c5.67-.41 4.51 8.31.57 9.81-6.91 1.83-13.54-10.62-.57-9.81Z" style="fill:#d66147"/></svg>