<svg xmlns="http://www.w3.org/2000/svg" fill="none" height="32" width="32" viewBox="0 0 64 64"><mask id="a"><rect width="64" height="64" fill="#fff" rx="0" ry="0"/></mask><g mask="url(#a)"><path fill="#e5a07e" d="M37 46.08V52a5 5 0 0 1-10 0v-5.92A14.04 14.04 0 0 1 18.58 37h-.08a4.5 4.5 0 0 1-.5-8.97V27a14 14 0 1 1 28 0v1.03a4.5 4.5 0 0 1-.58 8.97A14.04 14.04 0 0 1 37 46.08Z"/><mask id="b" width="36" height="44" x="14" y="13" maskUnits="userSpaceOnUse" style="mask-type:luminance"><path fill="#fff" d="M37 46.08V52a5 5 0 0 1-10 0v-5.92A14.04 14.04 0 0 1 18.58 37h-.08a4.5 4.5 0 0 1-.5-8.97V27a14 14 0 1 1 28 0v1.03a4.5 4.5 0 0 1-.58 8.97A14.04 14.04 0 0 1 37 46.08Z"/></mask><g mask="url(#b)"><path fill="#fff" d="M32 13a14 14 0 0 1 14 14v6a14 14 0 1 1-28 0v-6a14 14 0 0 1 14-14Z" opacity=".36" style="mix-blend-mode:overlay"/></g><path fill="#1B0640" d="M23.76 30.21c.4.13.82-.08.95-.47.23-.7.62-1 1.3-1 .66 0 1.05.3 1.28 1a.75.75 0 1 0 1.42-.48c-.43-1.3-1.38-2.01-2.7-2.01-1.34 0-2.29.71-2.72 2.01-.13.4.08.82.47.95Zm12 0c.4.13.82-.08.95-.47.23-.7.62-1 1.29-1s1.06.3 1.29 1a.75.75 0 1 0 1.42-.48c-.43-1.3-1.38-2.01-2.71-2.01s-2.28.71-2.71 2.01c-.13.4.08.82.47.95Z"/><path fill="#f27d65" fill-rule="evenodd" d="M46 28a17.63 17.63 0 0 1-3.35-5.6A32.92 32.92 0 0 1 32 24.04c-4.85 0-9.14-.83-12.9-2.5A13.95 13.95 0 0 0 18 27v1.03c-.73.08-1.42.34-2 .73v-1.38C16 18.33 23.16 11 32 11s16 7.33 16 16.38v1.38a4.47 4.47 0 0 0-2-.73V28Zm-9 20.06v-1.98A14.04 14.04 0 0 0 45.42 37h.08c.93 0 1.78-.28 2.5-.76v6.38c0 .47-.02.95-.06 1.41A34.63 34.63 0 0 1 37 48.06Zm-20.94-4.03A34.63 34.63 0 0 0 27 48.06v-1.98A14.04 14.04 0 0 1 18.58 37h-.08c-.93 0-1.79-.28-2.5-.76v6.38c0 .47.02.95.06 1.41Z" clip-rule="evenodd"/><path fill="#fff" d="M30 9c-8.84 0-16 7.33-16 16.38v1.38c.58-.4 1.27-.65 2-.73V25c0-1.94.4-3.8 1.1-5.47a31.35 31.35 0 0 0 12.9 2.5c3.9 0 7.46-.54 10.65-1.62A17.63 17.63 0 0 0 44 26v.03c.73.08 1.42.34 2 .73v-1.38C46 16.33 38.84 9 30 9Z" opacity=".26" style="mix-blend-mode:overlay" transform="translate(2 2)"/><path fill="#54d7c7" d="M27 49v3a5 5 0 0 0 10 0v-3l6.65 2.05a9 9 0 0 1 6.35 8.6V64H14v-4.35a9 9 0 0 1 6.35-8.6L27 49Z"/><path fill="#000" d="m11 6.54-1.65.5A9 9 0 0 0 7 8.17V20h4V6.54ZM15 20h4v-5.29a7.02 7.02 0 0 1-4-3.1V20Zm8 0h4v-8.4a7.02 7.02 0 0 1-4 3.11v5.3Zm8 0h4V8.16a9 9 0 0 0-2.35-1.12L31 6.55V20Z" opacity=".4" style="mix-blend-mode:overlay" transform="translate(11 44)"/><path fill="#fff" d="M3.4 13a9.01 9.01 0 0 1 2.53-4h8.14a6.98 6.98 0 0 0 2.03 4H3.4ZM39 17v3H3v-3h36Zm-2.93-8a9.01 9.01 0 0 1 2.53 4H25.9a6.98 6.98 0 0 0 2.03-4h8.14Z" opacity=".17" style="mix-blend-mode:lighten" transform="translate(11 44)"/><path fill="#1B0640" d="M30.32 41.73a.75186.75186 0 0 1 .36-1.46c2.44.61 4.17.32 5.29-.8a.75.75 0 1 1 1.06 1.06c-1.54 1.54-3.81 1.92-6.71 1.2Z"/><path fill="#000" d="M5.29 6.24a.75.75 0 1 1 1.42-.48c.23.7.62 1 1.3 1 .66 0 1.05-.3 1.28-1a.75.75 0 1 1 1.42.48c-.42 1.3-1.37 2.01-2.7 2.01S5.72 7.54 5.3 6.24Z" opacity=".36" style="mix-blend-mode:overlay" transform="translate(24 28)"/></g></svg>