<svg xmlns="http://www.w3.org/2000/svg" width="712" height="712" version="1.0" viewBox="0 0 534 534"><path d="M194.2 22.3c-30.7 47.7-49.9 94.3-55 133l-.9 6.7 7.9 2.5c9.3 2.9 15 3.2 19.7.7 3.4-1.7 3.5-1.9 5.3-12.7 2.2-13.1 6.6-30.1 10.8-41.6a189.8 189.8 0 0 1 20.2-39.5c5.2-8.2 11.1-17.9 13.1-21.5a83 83 0 0 0 8.7-21.8c0-1.9-6.8-6.9-14.8-11-9.3-4.7-8.4-5-15 5.2zM297.5 41.6l-14 34.9c-17.4 43.6-30.2 70.8-40.7 86.3a23 23 0 0 0-3.5 7.8c-.5 3-.1 4 2.8 7.1A29.3 29.3 0 0 0 259 186c5.8 0 9-2.9 15.8-14.3a370 370 0 0 0 25.6-54.7 661.6 661.6 0 0 1 14-33c7.7-16.4 10.6-25.3 10.6-32.9v-5.7l-8.1-3.4a62.3 62.3 0 0 0-12.9-3.8c-4.9-.4-4.9-.4-6.5 3.4zM231.3 46.8c-2.6 1.6-37.4 77.7-47.3 103.5-6 15.5-6.3 13.8 2.8 19.4 7 4.2 11.9 5.5 15.6 4.3 3-1 4.6-3.7 23.8-42.8C247 89.1 258 64.4 258 59.7c0-3-6.2-8.5-13.1-11.6-4.5-2.1-11.4-2.7-13.6-1.3zM507.8 58.8a165 165 0 0 0-16 12.4c-12.5 10.8-14 11.8-76.3 53.2a2155.4 2155.4 0 0 0-58.5 40.1c-19.4 14.5-34 26.6-34 28.3 0 .8 1.4 4.1 3.2 7.4 3.2 6 9.2 12.2 12.8 13.1 2.5.6 10.7-4.3 22.8-13.6l16.7-12.7c4-3 12.3-9.6 18.4-14.5 15.9-12.8 30.8-23 61.6-42.2 51-31.7 73.8-47.8 75.1-53 1-3.8-2.8-10.5-9.5-16.4-6.5-5.8-9.4-6.2-16.3-2.1zM387.2 63.5a73.3 73.3 0 0 0-9.7 11.3c-2.6 3.7-9.9 11.9-16.3 18.3a396.6 396.6 0 0 0-18.1 18.8c-3.5 4-11.9 11.9-18.5 17.4a332.2 332.2 0 0 0-16.6 14.8c-22.2 22.6-29 29.7-29.9 31.6-2.7 5.3-.6 11 6.1 16.7 9.2 7.9 11.7 6.6 40.3-21.4 54.4-53.1 89.5-89.9 89.5-93.8 0-1.1-1-3.2-2.2-4.7A75.5 75.5 0 0 0 393.7 59c-.8 0-3.8 2-6.5 4.5zM31.5 218.2C29.8 222.9 19 269.6 15 290A645.7 645.7 0 0 0 .8 410.2c-.2 23 1 32.8 5.9 49.8 3.7 13 7.6 19.4 17.2 28.9 18.1 17.7 32.8 25.7 54.5 29.5a109 109 0 0 0 37.1 1.2c22.6-2.4 35.5-6.2 54-16a232.8 232.8 0 0 0 55.4-40.1c10-9.7 24.1-25.5 24.1-27 0-.4 2.9-4.1 6.3-8.4a716.7 716.7 0 0 0 85.2-135.5c9.6-19.9 14.1-30.4 13.3-31.1-.6-.7-6.8-1.5-169.3-23.5-81.4-11-149-20.3-150.3-20.5-1.3-.3-2.4 0-2.7.7z"/></svg>